# Blender 4.2.2 LTS
# www.blender.org
mtllib seal.mtl

usemtl seal
o Cube.001
v -9.000000 -3.000000 -1.000000
v -9.000000 -3.000000 1.000000
v -9.000000 3.000000 -1.000000
v -9.000000 3.000000 1.000000
v -3.000000 -9.000000 -1.000000
v -3.000000 -9.000000 1.000000
v -3.000000 9.000000 1.000000
v -3.000000 9.000000 -1.000000
v 0.000000 -4.500000 1.000000
v -3.000000 3.000000 1.000000
v 1.500000 9.000000 1.000000
v 0.000000 4.500000 1.000000
v -3.000000 -3.000000 1.000000
v 1.500000 -9.000000 1.000000
v 0.000000 4.500000 -1.000000
v 0.000000 -4.500000 -1.000000
v 1.500000 -9.000000 -1.000000
v -3.000000 -3.000000 -1.000000
v -3.000000 3.000000 -1.000000
v 1.500000 9.000000 -1.000000
vn -1.0000 -0.0000 -0.0000
vn -0.7071 -0.7071 -0.0000
vn -0.7071 0.7071 -0.0000
vn 0.9487 -0.3162 -0.0000
vn 0.9487 0.3162 -0.0000
vn -0.0000 -0.0000 1.0000
vn -0.0000 -0.0000 -1.0000
vn -0.0000 -1.0000 -0.0000
vn 0.4472 0.8944 -0.0000
vn 0.4472 -0.8944 -0.0000
vn 1.0000 -0.0000 -0.0000
vn -0.0000 1.0000 -0.0000
vt 0.333333 0.930556
vt 0.666667 0.819444
vt 0.333333 0.819444
vt 0.208333 0.819444
vt 0.541667 0.930556
vt 0.208333 0.930556
vt 0.541667 0.819444
vt 0.750000 0.930556
vt 1.000000 0.819444
vt 1.000000 0.930556
vt 0.000000 0.930556
vt 0.250000 0.819444
vt 0.250000 0.930556
vt 0.336667 0.666667
vt 0.003333 0.666667
vt 0.003333 0.333333
vt 0.336667 0.333333
vt 0.791667 0.930556
vt 0.791667 0.819444
vt 0.708333 0.930556
vt 0.708333 0.819444
vt 0.666667 0.930556
vt 0.750000 0.819444
vt 0.000000 0.819444
vt 0.586667 0.000000
vt 0.503333 0.250000
vt 0.336667 0.000000
vt 0.503333 0.750000
vt 0.336667 1.000000
vt 0.586667 1.000000
s 0
f 2/1/1 3/2/1 1/3/1
f 1/4/2 6/5/2 2/6/2
f 4/6/3 8/7/3 3/4/3
f 12/8/4 20/9/4 11/10/4
f 14/11/5 16/12/5 9/13/5
f 10/14/6 4/15/6 2/16/6
f 1/16/7 19/14/7 18/17/7
f 14/18/8 5/7/8 17/19/8
f 9/20/9 18/7/9 13/5/9
f 10/5/10 15/21/10 12/20/10
f 10/22/11 18/3/11 19/2/11
f 11/18/12 8/7/12 7/5/12
f 2/1/1 4/22/1 3/2/1
f 1/4/2 5/7/2 6/5/2
f 4/6/3 7/5/3 8/7/3
f 12/8/4 15/23/4 20/9/4
f 14/11/5 17/24/5 16/12/5
f 14/25/6 9/26/6 6/27/6
f 9/26/6 13/17/6 6/27/6
f 10/14/6 12/28/6 7/29/6
f 12/28/6 11/30/6 7/29/6
f 2/16/6 6/27/6 13/17/6
f 10/14/6 7/29/6 4/15/6
f 2/16/6 13/17/6 10/14/6
f 17/25/7 5/27/7 16/26/7
f 5/27/7 1/16/7 18/17/7
f 16/26/7 5/27/7 18/17/7
f 1/16/7 3/15/7 19/14/7
f 3/15/7 8/29/7 19/14/7
f 8/29/7 20/30/7 15/28/7
f 8/29/7 15/28/7 19/14/7
f 14/18/8 6/5/8 5/7/8
f 9/20/9 16/21/9 18/7/9
f 10/5/10 19/7/10 15/21/10
f 10/22/11 13/1/11 18/3/11
f 11/18/12 20/19/12 8/7/12
