# Blender 4.2.2 LTS
# www.blender.org
mtllib seal.mtl

usemtl seal
o Cube
v 9.000000 -3.000000 -1.000000
v -1.000000 -1.000000 -1.000000
v 9.000000 -3.000000 1.000000
v -1.000000 -1.000000 1.000000
v 9.000000 3.000000 -1.000000
v -1.000000 1.000000 -1.000000
v 9.000000 3.000000 1.000000
v -1.000000 1.000000 1.000000
v 1.000000 -1.000000 -1.000000
v 3.000000 -9.000000 1.000000
v 3.000000 -9.000000 -1.000000
v 1.000000 -1.000000 1.000000
v 3.000000 9.000000 -1.000000
v 1.000000 1.000000 -1.000000
v 3.000000 9.000000 1.000000
v 1.000000 1.000000 1.000000
v 0.000000 -4.500000 1.000000
v -3.000000 3.000000 1.000000
v 1.500000 9.000000 1.000000
v 0.000000 4.500000 1.000000
v -3.000000 -3.000000 1.000000
v 1.500000 -9.000000 1.000000
v 0.000000 4.500000 -1.000000
v 0.000000 -4.500000 -1.000000
v 1.500000 -9.000000 -1.000000
v -3.000000 -3.000000 -1.000000
v -3.000000 3.000000 -1.000000
v 1.500000 9.000000 -1.000000
vn 1.0000 -0.0000 -0.0000
vn -0.0000 -0.0000 -1.0000
vn -0.0000 -1.0000 -0.0000
vn 0.7071 -0.7071 -0.0000
vn 0.7071 0.7071 -0.0000
vn -0.0000 -0.0000 1.0000
vn -0.0000 1.0000 -0.0000
vn -0.9487 0.3162 -0.0000
vn -0.4472 -0.8944 -0.0000
vn -0.4472 0.8944 -0.0000
vn -1.0000 -0.0000 -0.0000
vn -0.9487 -0.3162 -0.0000
vt 0.000000 0.435143
vt 0.072524 0.217571
vt 0.072524 0.435143
vt 0.499333 0.750000
vt 0.443778 0.555556
vt 0.332667 0.666667
vt 0.999333 0.333333
vt 0.499333 0.250000
vt 0.554889 0.444444
vt 0.072524 0.848083
vt 0.126279 0.920607
vt 0.072524 0.920607
vt 0.000000 0.217571
vt 0.072524 0.000000
vt 0.000000 0.652714
vt 0.443778 0.444444
vt 0.126279 0.993131
vt 0.072524 0.993131
vt 0.072524 0.163179
vt 0.145048 0.000000
vt 0.145048 0.163179
vt 0.145048 0.326357
vt 0.072524 0.442173
vt 0.072524 0.326357
vt 0.072524 0.557988
vt 0.145048 0.442173
vt 0.145048 0.557988
vt 0.000000 0.652714
vt 0.072524 0.870285
vt 0.000000 0.870285
vt 0.145048 0.163178
vt 0.072524 0.326357
vt 0.072524 0.163178
vt 0.072524 0.630512
vt 0.072524 0.703036
vt 0.144197 0.775559
vt 0.072524 0.775559
vt 0.145048 0.703036
vt 0.144197 0.848083
vt 0.999333 0.666667
vt 0.666000 1.000000
vt 0.554889 0.555556
vt 0.582667 1.000000
vt 0.666000 0.000000
vt 0.582667 0.000000
vt 0.332667 0.333333
vt 0.126279 0.848083
vt 0.000000 0.000000
vt 0.072524 0.652714
vt 0.145048 0.442173
vt 0.145048 0.326357
vt 0.145048 0.630512
vt 0.144197 0.703036
s 0
f 7/1/1 1/2/1 5/3/1
f 23/4/2 6/5/2 27/6/2
f 1/7/2 24/8/2 9/9/2
f 10/10/3 25/11/3 11/12/3
f 3/13/4 11/14/4 1/2/4
f 5/3/5 15/15/5 7/1/5
f 8/5/6 18/6/6 4/16/6
f 19/12/7 13/17/7 28/18/7
f 20/19/8 28/20/8 23/21/8
f 26/22/9 17/23/9 21/24/9
f 18/25/10 23/26/10 27/27/10
f 18/28/11 26/29/11 21/30/11
f 24/31/12 22/32/12 17/33/12
f 2/27/1 8/34/1 4/25/1
f 16/35/3 6/36/3 14/37/3
f 16/34/11 9/38/11 12/35/11
f 9/39/7 4/37/7 12/36/7
f 7/40/6 15/41/6 20/4/6
f 7/1/1 3/13/1 1/2/1
f 23/4/2 14/42/2 6/5/2
f 14/42/2 23/4/2 5/40/2
f 23/4/2 28/43/2 13/41/2
f 5/40/2 23/4/2 13/41/2
f 5/40/2 1/7/2 9/9/2
f 1/7/2 11/44/2 24/8/2
f 11/44/2 25/45/2 24/8/2
f 24/8/2 26/46/2 2/16/2
f 26/46/2 27/6/2 2/16/2
f 27/6/2 6/5/2 2/16/2
f 9/9/2 14/42/2 5/40/2
f 24/8/2 2/16/2 9/9/2
f 10/10/3 22/47/3 25/11/3
f 3/13/4 10/48/4 11/14/4
f 5/3/5 13/49/5 15/15/5
f 8/5/6 20/4/6 18/6/6
f 18/6/6 21/46/6 4/16/6
f 19/12/7 15/11/7 13/17/7
f 20/19/8 19/14/8 28/20/8
f 26/22/9 24/50/9 17/23/9
f 18/25/10 20/23/10 23/26/10
f 18/28/11 27/49/11 26/29/11
f 24/31/12 25/51/12 22/32/12
f 2/27/1 6/52/1 8/34/1
f 16/35/3 8/53/3 6/36/3
f 16/34/11 14/52/11 9/38/11
f 9/39/7 2/10/7 4/37/7
f 12/9/6 4/16/6 17/8/6
f 4/16/6 21/46/6 17/8/6
f 17/8/6 22/45/6 10/44/6
f 20/4/6 8/5/6 16/42/6
f 12/9/6 17/8/6 3/7/6
f 17/8/6 10/44/6 3/7/6
f 19/43/6 20/4/6 15/41/6
f 20/4/6 16/42/6 7/40/6
f 16/42/6 12/9/6 3/7/6
f 3/7/6 7/40/6 16/42/6
